<svg xmlns="http://www.w3.org/2000/svg" viewBox="0 0 32 32" version="1.1" xmlns:xlink="http://www.w3.org/1999/xlink" transform="matrix(1,0,0,-1,0,0)">
  <defs>
    <filter id="a" width="1.226" height="1.167" x="-.11" y="-.08" color-interpolation-filters="sRGB">
      <feGaussianBlur stdDeviation=".94"></feGaussianBlur>
    </filter>
  </defs>
  <path d="M9.209 2.5059C6.7176 2.3375 6.1004 5.5848 6.0176 13.791L6 19.5c0 5.5228 4.4772 10 10 10s10-4.4772 10-10c.0027-.235-.0175-.4871-.0254-.707l-.002-.0118c-.271-4.5289-3.7527-8.568-12.08-14.0722-2.0322-1.3432-3.5512-2.1266-4.6836-2.2031z" opacity="0.2" fill="#000000" filter="url(#a)" data-darkreader-inline-fill="" style="--darkreader-inline-fill: var(--darkreader-background-000000, #000000);"></path>
  <path d="M9.209 1.0059C6.7176.8375 6.1004 4.0848 6.0176 12.291L6 18c0 5.5228 4.4772 10 10 10s10-4.4772 10-10c.0027-.235-.0175-.4871-.0254-.707l-.002-.0118c-.271-4.5289-3.7527-8.568-12.08-14.0722-2.0322-1.3432-3.5512-2.1266-4.6836-2.2031z" fill="#7E57C2" opacity="1" data-darkreader-inline-fill="" style="--darkreader-inline-fill: var(--darkreader-background-7e57c2, #52328a);"></path>
</svg>